<svg id="Layer_1" data-name="Layer 1" xmlns="http://www.w3.org/2000/svg" width="732" height="557.03" viewBox="0 0 732 557.03"><defs><style>.cls-1{fill:#fff;}.cls-2{fill:#c4122e;}.cls-3{fill:#c6c5c5;}</style></defs><title>worcester-polytechnic-institute_logo</title><g id="wpi"><g id="wpi_BGD" data-name="wpi BGD"><g id="wpi-2" data-name="wpi"><g id="g10"><g id="g12"><path id="path14" class="cls-1" d="M460.93,489.57c7.53-14.54,32.39-64.15,49.6-119.86,75.84,20.54,116.83-24.85,131.35-46.13a90.3,90.3,0,0,1-21.5-1c-20.67-2.11-48.53-12.69-63.84-51.06-11.22-28.09-26.55-47.29-47.35-58.82a134.91,134.91,0,0,1,24.34-1.84c14,0,31,1.27,52,3.91a230,230,0,0,0,28.59,1.87h0c67.78,0,100.08-33.53,113.3-53.53,22.36-33.8,10.41-69.65,10.41-69.65C714.05,144.6,646.23,142,646.23,142c-19.65,0-41.44-3.63-64.78-10.78-29-8.88-55.41-13.39-78.42-13.39-54.79,0-95.16,25.56-120.12,76a104.43,104.43,0,0,0-15.82,0c-25-50.44-65.33-76-120.12-76-23,0-49.4,4.51-78.42,13.39C145.22,138.37,123.43,142,103.78,142c0,0-67.83,2.6-91.59-48.51,0,0-11.95,35.85,10.41,69.65,13.23,20,45.53,53.53,113.3,53.53h0a229.75,229.75,0,0,0,28.59-1.87c21-2.64,38-3.91,52-3.91a134.84,134.84,0,0,1,24.34,1.84c-20.8,11.53-36.13,30.73-47.34,58.82-15.32,38.37-43.17,48.95-63.84,51.06a90.37,90.37,0,0,1-21.5,1c14.51,21.28,55.51,66.67,131.34,46.13C256.69,425.42,281.4,475,288.93,489.52c0,0-17.06,52.52,26.55,95,0,0-3.61,11.83-15,25.9a138.81,138.81,0,0,0,38.12,2.76s20.52,44.21,105.16,34c0,0-12.61-17-18.68-32.76a224.46,224.46,0,0,0,31-5.72s-12.44-12.3-19.48-25.41c11.52-10.76,35.24-40.26,24.33-93.72" transform="translate(-9 -93.49)"/><path id="path16" class="cls-2" d="M375,205.16a91.46,91.46,0,0,1,14.93,1.21c32.21-73,92.48-93.31,188.1-64,110,33.68,150.5-18.6,151.85-20.51,3.34,7.75-16.66,83.21-115.8,83.2A218,218,0,0,1,587,203.27c-57-7.18-88.68-4.8-102.54,7.71a25.94,25.94,0,0,0-3.11,3.37c28.48,7,49.67,24.62,64.37,61.51,17.71,44.34,50.66,56,73.5,58.33,0,0-45.42,48.69-116.37,20.53-19.7,69.33-54.46,133.51-54.46,133.51s17.93,55.26-26.12,92.21A63,63,0,0,0,434.18,601a97.47,97.47,0,0,1-26.37,1.63c3.61,11.12,9.14,25.5,14.87,34.08-58.23.86-73.65-26.23-77.36-36.27a84.83,84.83,0,0,1-24.81,1.2,60.7,60.7,0,0,0,7.93-21.18c-45.92-37.83-27-92.21-27-92.21s-34.54-64.18-54.24-133.51c-70.94,28.16-116.37-20.53-116.37-20.53,22.85-2.35,55.8-14,73.49-58.33,14.72-36.89,35.9-54.54,64.38-61.51a24.53,24.53,0,0,0-3.1-3.37c-13.87-12.51-45.5-14.89-102.54-7.71A218,218,0,0,1,135.92,205c-99.13,0-119.14-75.45-115.8-83.2C21.48,123.75,62,176,172,142.35c95.61-29.29,155.88-8.93,188.1,64A91.24,91.24,0,0,1,375,205.16" transform="translate(-9 -93.49)"/><path id="path18" class="cls-3" d="M430,503.73v-.22c-2.73,29.36-38,52.65-58.33,63.73-.06-9.13-7.83-18.79-23.5-28.66-31.6-19.9-28.67-34.74-28.67-34.74s-11.46,26.06,13.65,53c0,0-1.91-7.44,1.68-14.16,5.2,7.47,13.22,22.38,7.42,36.92A24.7,24.7,0,0,0,355.13,572c1.79,12.85,8.64,31.21,32.48,38,0,0-10.67-15.46-3.39-32.78a16.89,16.89,0,0,0,14.37,8.94s-5.26-13.48,7.82-23.16c31-22.46,23.54-59.24,23.54-59.24" transform="translate(-9 -93.49)"/><path id="path20" class="cls-3" d="M374.78,513.16c-25.83,0-36.56-8.52-36.56-8.52,6.95,26.11,36.56,28.11,36.56,28.11s29.6-2,36.56-28.11c0,0-10.72,8.52-36.56,8.52" transform="translate(-9 -93.49)"/><path id="path22" class="cls-1" d="M572.8,159.28C454.38,123,418.09,177.12,400,229.12a90.22,90.22,0,0,0-50,0c-18.05-52-54.36-106.12-172.78-69.84-34.62,10.6-63.13,13.32-86.3,11.73a125.32,125.32,0,0,0,20.83,4.82c17.88,1.22,41.49,1.07,71.46-2.42l5.61-11.14,4,10.53.51-.09-.36.46,6.14,16.21,6.57-19.08,2.2-.34c6.1-1,11.8-1.62,17.2-2l8.24-14.1,6.35,31.57,8.8-17.22a87.85,87.85,0,0,1,19.48,4.23l13.86-10-8.62,36.28,14.56-15.36c20.49,17,23.25,42.94,25.18,54.08-4.41-1.45-60.09-18.65-81.36,31.55-16,37.74-34.25,58.48-52.18,68.06,18.26,3.52,64.55,5.22,96.44-56.66,9.05-17.56,21.67-25.08,36.17-25.67-8.92,5.23-20.29,16.1-16,36.47,0,0-16.72,1-22.88,19.28,0,0,22.56-9.37,61.9,44.23a64,64,0,0,0,6.6-14.56s7.33,24.75-5.21,46.88c0,0-.52-9.23-9.72-22.63-1.84,5.12-5,12.06-10.22,17.63,0,0-12.18-11.06-17.05-25.24,0,0,14.55,11,19.39-4l-9.23-9c.09,4.43-1.93,8-5.1,8.54-3.78.59-7.74-3.41-8.83-9-.9-4.51.39-8.61,2.92-10.32-2.9-2.8-5.66-5.5-8-7.7,0,0-9.06,21.72,4.68,42.18,0,0-14.14-7.46-20.13-22.61,0,0-4.34,7.35-4,19.18,0,0,5.89,28.8,39,73.8,0,0,17.67-23.58,38-29.12,0,0-36.78,34-31.18,74.61,0,0,6-6,23.9,6.88s32.35,7.07,24.4-6.66c-7.33-12.67-28.25-3.55-28.25-33.43,0,0,12,9.35,37.87,9.35s37.87-9.35,37.87-9.35c0,29.88-20.91,20.76-28.24,33.43-8,13.73,6.52,19.55,24.38,6.66s23.9-6.88,23.9-6.88c5.61-40.61-31.17-74.61-31.17-74.61,20.28,5.54,38,29.12,38,29.12,33.07-45,39-73.8,39-73.8.29-11.83-4-19.18-4-19.18-6,15.15-20.12,22.61-20.12,22.61C468,347.06,459,325.34,459,325.34c-2.3,2.2-5.06,4.89-7.95,7.69,2.54,1.7,3.83,5.81,2.93,10.33-1.08,5.55-5.05,9.55-8.83,9-3.17-.51-5.19-4.12-5.11-8.57l-9.25,9c4.83,15,19.39,4,19.39,4-4.86,14.18-17.05,25.24-17.05,25.24-5.19-5.57-8.39-12.51-10.22-17.63-9.21,13.4-9.72,22.63-9.72,22.63-12.55-22.13-5.21-46.88-5.21-46.88,1.92,7.12,6.61,14.56,6.61,14.56,39.33-53.6,61.89-44.23,61.89-44.23-6.16-18.28-22.88-19.28-22.88-19.28,4.3-20.37-7.07-31.24-16-36.47,14.49.59,27.11,8.11,36.17,25.67,31.89,61.88,78.18,60.18,96.44,56.66-18-9.58-36.21-30.32-52.2-68.06-20.65-48.76-73.77-33.93-80.86-31.71,1.93-11.24,4.76-37,25.14-53.92l14.57,15.36-8.62-36.28,13.87,10a87.76,87.76,0,0,1,19.47-4.23l8.8,17.22,6.35-31.57L525,168c5.4.37,11.1,1,17.21,2l2.19.34,6.57,19.08,6.15-16.21-.37-.46.51.09,4-10.53,5.62,11.14c30,3.49,53.58,3.64,71.47,2.42A125.81,125.81,0,0,0,659.11,171c-23.18,1.59-51.68-1.13-86.31-11.73" transform="translate(-9 -93.49)"/><path id="path24" class="cls-3" d="M275.8,280.43c9.05-17.56,21.67-25.08,36.17-25.67,0,0-36.93-20.41-61.48,30.15-17.83,36.74-50.88,50.56-71.13,52.18,18.26,3.52,64.55,5.22,96.44-56.66" transform="translate(-9 -93.49)"/><path id="path26" class="cls-3" d="M473.75,280.43c-9.06-17.56-21.68-25.08-36.17-25.67,0,0,36.91-20.41,61.47,30.15,17.83,36.74,50.87,50.56,71.14,52.18-18.26,3.52-64.55,5.22-96.44-56.66" transform="translate(-9 -93.49)"/><path id="path28" class="cls-3" d="M407.57,305.8a31.06,31.06,0,0,0,7.68-24c-2.43-22.05-27.33-39.92-55.59-39.88a64.4,64.4,0,0,0-12.73,1.28c8.42,2.86,15.95,8.24,22.08,17,18.83,26.74-24,44.14-21.53,66.49s28.42,29.15,28.42,29.15c-20.4-24.39-3.06-39.8,6.75-45.95l-3.77,16.28c13.8-6.37,22.91-13.34,28.69-20.34" transform="translate(-9 -93.49)"/><path id="path30" class="cls-3" d="M312.32,417.73c-36.77-43.73-37.18-72.82-37.18-72.82s-4.34,7.35-4,19.18c0,0,5.89,28.8,39,73.8,0,0,17.67-23.58,38-29.12-22.1-2.28-35.71,9-35.71,9" transform="translate(-9 -93.49)"/><path id="path32" class="cls-3" d="M437.22,417.73C474,374,474.4,344.91,474.4,344.91s4.33,7.35,4,19.18c0,0-5.9,28.8-39,73.8,0,0-17.68-23.58-38-29.12,22.11-2.28,35.71,9,35.71,9" transform="translate(-9 -93.49)"/><path id="path34" class="cls-3" d="M324.39,441.64c-5.71,12-9.65,26.39-7.54,41.74,0,0,6-6,23.9,6.88s32.35,7.07,24.4-6.66c-3.17-5.47-8.87-6.89-14.33-9.12h0l-.1,0-.19-.09C331.62,467,326,450,324.39,441.64" transform="translate(-9 -93.49)"/><path id="path36" class="cls-3" d="M425.18,441.64c5.72,12,9.66,26.39,7.54,41.74,0,0-6-6-23.9,6.88s-32.35,7.07-24.4-6.66c3.17-5.47,8.88-6.89,14.33-9.12h0l.1,0,.2-.09C418,467,423.55,450,425.18,441.64" transform="translate(-9 -93.49)"/><path id="path38" class="cls-3" d="M502,650.51h-5V636h-.54l-4.58,10.18H488.4l-4.64-10.35h-.66v14.71h-4.75V631.9h8.12l3.77,9.1,3.91-9.1H502Zm-26.65-14.58h-5.34v14.58h-5V635.93h-5.34v-4h15.7v4Z" transform="translate(-9 -93.49)"/></g></g></g></g></g></svg>